<svg xmlns="http://www.w3.org/2000/svg" viewBox="69 517 2053 699" fill="none">
  <path d="M323.031,517.031 L69.312,518.562 L69.625,1215.59 L583.969,1215.59 L584.188,1161 L584.188,1159 C584.188,1159 674.187,1224 805.188,1207 C933.238,1190.38 1009.62,1105.75 1009.62,1105.75 L1009.19,1215 L1244.38,1214.81 L1244.19,1039 L1370.41,1215.22 L1631.16,1214.88 L1374.19,853 L1627.88,518.25 L1367.31,517.75 L1238.19,685 L1237.06,518.844 L999.594,517.906 L1001.19,635 C1001.19,635 813.614,422.108 576.531,575.031 C340.515,727.267 430.188,976 430.188,976 L323.531,975.312 L323.031,517.031 z M755.5,733 C825.364,733 882,789.636 882,859.5 C882,929.364 825.364,986 755.5,986 C685.636,986 629,929.364 629,859.5 C629,789.636 685.636,733 755.5,733 z" fill="#0D65C7"/>
  <path d="M1630.22,518.375 L1373,856 L1631.12,1214.44 L2122.25,1213.66 L2121.28,518.375 L1630.22,518.375 z M1556.34,632.375 L1716.34,632.375 L1797.72,740.531 L1882.38,632.375 L2065.88,632.938 L1891.09,867.75 L2065.31,1100.41 L1886.75,1101.5 L1799.34,990.625 L1717.47,1100.59 L1562.34,1100.41 L1542.69,1072.56 L1701.47,865.406 L1536.69,656.969 L1556.34,632.375 z" fill="#001233"/>
</svg>
